# Blender v2.78 (sub 0) OBJ File: ''
# www.blender.org
o Plane
v 0.710745 1.604350 1.012617
v 0.000000 1.604350 0.626562
v 0.000000 1.173914 0.561024
v 0.710745 0.995019 0.979848
v 0.710745 1.604350 1.784726
v 0.710745 0.657597 1.679616
v -0.710745 1.604350 1.784726
v 0.000000 1.604350 2.170781
v 0.000000 0.488886 2.029501
v -0.710745 0.657597 1.679616
v -0.710745 1.604350 1.012617
v -0.710745 0.995019 0.979848
v 0.000000 0.917122 0.379085
v 0.710745 0.564166 0.559453
v 0.710745 -0.141746 0.920188
v 0.000000 -0.494702 1.100556
v -0.710745 -0.141746 0.920188
v -0.710745 0.564166 0.559453
v 0.000000 0.788869 -0.022405
v 0.710745 0.389713 -0.016371
v 0.710745 -0.408599 -0.004303
v 0.000000 -0.807755 0.001730
v -0.710745 -0.408599 -0.004303
v -0.710745 0.389713 -0.016371
v 0.000000 0.763496 -4.052313
v 0.710745 0.364297 -4.054376
v 0.710745 -0.434101 -4.058498
v 0.000000 -0.833300 -4.060560
v -0.710745 -0.434101 -4.058498
v -0.710745 0.364297 -4.054376
vt 0.8438 1.0000
vt 1.0000 0.9219
vt 1.0000 1.0000
vt 0.6875 1.0000
vt 0.8438 0.9219
vt 0.3125 0.9219
vt 0.5000 1.0000
vt 0.3125 1.0000
vt 0.1562 0.9219
vt 0.1562 1.0000
vt 0.0000 0.9219
vt -0.0000 1.0000
vt 0.6875 0.9219
vt 1.0000 0.8281
vt 0.8438 0.8281
vt 0.3125 0.8281
vt 0.5000 0.9219
vt 0.1562 0.8281
vt 0.0000 0.8281
vt 0.6875 0.8281
vt 1.0000 0.7500
vt 0.8438 0.7500
vt 0.3125 0.7500
vt 0.5000 0.8281
vt 0.1562 0.7500
vt 0.0000 0.7500
vt 0.6875 0.7500
vt 1.0000 0.0000
vt 0.8438 -0.0000
vt 0.3062 0.0008
vt 0.5000 0.7500
vt 0.1562 0.0000
vt 0.0000 0.0000
vt 0.6875 0.0000
vt 0.5000 0.0000
vn 0.5031 0.0728 -0.8612
vn 0.4908 0.0979 -0.8658
vn 0.4731 0.1326 -0.8710
vn 1.0000 -0.0000 0.0000
vn -0.4660 -0.1059 0.8784
vn -0.4684 -0.1036 0.8774
vn -0.4750 -0.0971 0.8746
vn -1.0000 -0.0000 0.0000
vn -0.4908 0.0979 -0.8658
vn -0.5031 0.0728 -0.8612
vn -0.4731 0.1326 -0.8710
vn 0.4684 -0.1036 0.8774
vn 0.4660 -0.1059 0.8784
vn 0.4750 -0.0971 0.8746
vn 0.4840 0.5872 -0.6488
vn 0.5079 0.5402 -0.6710
vn 0.5308 0.4899 -0.6915
vn -0.4640 -0.6089 0.6434
vn -0.4631 -0.6097 0.6433
vn -0.4616 -0.6110 0.6431
vn -0.5079 0.5402 -0.6710
vn -0.4840 0.5872 -0.6488
vn -0.5308 0.4899 -0.6915
vn 0.4631 -0.6097 0.6433
vn 0.4640 -0.6089 0.6434
vn 0.4616 -0.6110 0.6431
vn 0.4773 0.8398 -0.2587
vn 0.4793 0.8376 -0.2620
vn 0.4821 0.8346 -0.2666
vn -0.4781 -0.8443 0.2418
vn -0.4787 -0.8439 0.2422
vn -0.4802 -0.8427 0.2433
vn -0.4793 0.8376 -0.2620
vn -0.4773 0.8398 -0.2587
vn -0.4821 0.8346 -0.2666
vn 0.4787 -0.8439 0.2422
vn 0.4781 -0.8443 0.2418
vn 0.4802 -0.8427 0.2433
vn 0.4897 0.8719 -0.0055
vn -0.4897 -0.8719 0.0055
vn -0.4897 0.8719 -0.0055
vn 0.4897 -0.8719 0.0055
vn 0.5157 0.0460 -0.8555
vn -0.4601 -0.1116 0.8808
vn -0.5157 0.0460 -0.8555
vn 0.4601 -0.1116 0.8808
vn 0.4672 0.6175 -0.6328
vn -0.4652 -0.6078 0.6436
vn -0.4672 0.6175 -0.6328
vn 0.4652 -0.6078 0.6436
vn 0.4751 0.8421 -0.2551
vn -0.4768 -0.8454 0.2408
vn -0.4751 0.8421 -0.2551
vn 0.4768 -0.8454 0.2408
s 1
f 1/1/1 3/2/2 2/3/3
f 5/4/4 4/5/4 1/1/4
f 10/6/5 8/7/6 7/8/7
f 12/9/8 7/8/8 11/10/8
f 3/11/9 11/10/10 2/12/11
f 8/7/12 6/13/13 5/4/14
f 4/5/15 13/14/16 3/2/17
f 6/13/4 14/15/4 4/5/4
f 17/16/18 9/17/19 10/6/20
f 18/18/8 10/6/8 12/9/8
f 13/19/21 12/9/22 3/11/23
f 9/17/24 15/20/25 6/13/26
f 14/15/27 19/21/28 13/14/29
f 15/20/4 20/22/4 14/15/4
f 23/23/30 16/24/31 17/16/32
f 24/25/8 17/16/8 18/18/8
f 19/26/33 18/18/34 13/19/35
f 16/24/36 21/27/37 15/20/38
f 20/22/39 25/28/39 19/21/39
f 21/27/4 26/29/4 20/22/4
f 29/30/40 22/31/40 23/23/40
f 30/32/8 23/23/8 24/25/8
f 25/33/41 24/25/41 19/26/41
f 22/31/42 27/34/42 21/27/42
f 1/1/1 4/5/43 3/2/2
f 5/4/4 6/13/4 4/5/4
f 10/6/5 9/17/44 8/7/6
f 12/9/8 10/6/8 7/8/8
f 3/11/9 12/9/45 11/10/10
f 8/7/12 9/17/46 6/13/13
f 4/5/15 14/15/47 13/14/16
f 6/13/4 15/20/4 14/15/4
f 17/16/18 16/24/48 9/17/19
f 18/18/8 17/16/8 10/6/8
f 13/19/21 18/18/49 12/9/22
f 9/17/24 16/24/50 15/20/25
f 14/15/27 20/22/51 19/21/28
f 15/20/4 21/27/4 20/22/4
f 23/23/30 22/31/52 16/24/31
f 24/25/8 23/23/8 17/16/8
f 19/26/33 24/25/53 18/18/34
f 16/24/36 22/31/54 21/27/37
f 20/22/39 26/29/39 25/28/39
f 21/27/4 27/34/4 26/29/4
f 29/30/40 28/35/40 22/31/40
f 30/32/8 29/30/8 23/23/8
f 25/33/41 30/32/41 24/25/41
f 22/31/42 28/35/42 27/34/42
